<svg xmlns="http://www.w3.org/2000/svg" width="20" height="20" viewBox="0 0 20 20" fill="none">
<path d="M8.8622 1.0514C9.08253 -0.0112402 10.6002 -0.0112376 10.8206 1.05141L11.9575 6.53497C12.0617 7.03741 12.5292 7.37947 13.0396 7.32664L18.4732 6.76419C19.527 6.65512 20.0047 8.04469 19.1066 8.60662L14.2764 11.6288C13.8637 11.887 13.6969 12.405 13.8814 12.8555L16.0725 18.2058C16.4803 19.2015 15.2434 20.0505 14.4608 19.3121L10.5277 15.6009C10.1424 15.2373 9.54039 15.2373 9.15509 15.6009L5.22194 19.3121C4.43938 20.0505 3.20249 19.2015 3.61024 18.2058L5.80131 12.8555C5.98582 12.405 5.81904 11.887 5.40632 11.6288L0.576133 8.60662C-0.321967 8.04469 0.155729 6.65512 1.20951 6.76419L6.64313 7.32663C7.15353 7.37947 7.62109 7.03741 7.72527 6.53497L8.8622 1.0514Z" fill="#FFC225"/>
</svg>